<svg width="36" height="36" viewBox="0 0 36 36" fill="none" xmlns="http://www.w3.org/2000/svg">
<rect x="0.5" y="0.5" width="35.0015" height="35" rx="7.5" transform="matrix(4.37114e-08 1 1 -4.37114e-08 2.18557e-08 -2.18557e-08)" stroke="#E6EDF0"/>
<g clip-path="url(#clip0_80_60)">
<path fill-rule="evenodd" clip-rule="evenodd" d="M14.9797 10.71C15.7617 10.674 16.011 10.666 18.003 10.666C19.995 10.666 20.2443 10.6746 21.0257 10.71C21.807 10.7453 22.3403 10.87 22.807 11.0506C23.2957 11.2353 23.739 11.524 24.1057 11.8973C24.479 12.2633 24.767 12.706 24.951 13.1953C25.1323 13.662 25.2563 14.1953 25.2923 14.9753C25.3283 15.7586 25.3363 16.008 25.3363 17.9993C25.3363 19.9913 25.3277 20.2406 25.2923 21.0226C25.257 21.8026 25.1323 22.336 24.951 22.8026C24.767 23.292 24.4785 23.7354 24.1057 24.102C23.739 24.4753 23.2957 24.7633 22.807 24.9473C22.3403 25.1286 21.807 25.2526 21.027 25.2886C20.2443 25.3246 19.995 25.3326 18.003 25.3326C16.011 25.3326 15.7617 25.324 14.9797 25.2886C14.1997 25.2533 13.6663 25.1286 13.1997 24.9473C12.7103 24.7633 12.2669 24.4748 11.9003 24.102C11.5273 23.7357 11.2386 23.2925 11.0543 22.8033C10.8737 22.3366 10.7497 21.8033 10.7137 21.0233C10.6777 20.24 10.6697 19.9906 10.6697 17.9993C10.6697 16.0073 10.6783 15.758 10.7137 14.9766C10.749 14.1953 10.8737 13.662 11.0543 13.1953C11.2388 12.706 11.5278 12.2628 11.901 11.8966C12.267 11.5236 12.71 11.2349 13.199 11.0506C13.6657 10.87 14.199 10.746 14.979 10.71H14.9797ZM20.9663 12.03C20.193 11.9946 19.961 11.9873 18.003 11.9873C16.045 11.9873 15.813 11.9946 15.0397 12.03C14.3243 12.0626 13.9363 12.182 13.6777 12.2826C13.3357 12.416 13.091 12.574 12.8343 12.8306C12.591 13.0673 12.4038 13.3555 12.2863 13.674C12.1857 13.9326 12.0663 14.3206 12.0337 15.036C11.9983 15.8093 11.991 16.0413 11.991 17.9993C11.991 19.9573 11.9983 20.1893 12.0337 20.9626C12.0663 21.678 12.1857 22.066 12.2863 22.3246C12.4037 22.6426 12.591 22.9313 12.8343 23.168C13.071 23.4113 13.3597 23.5986 13.6777 23.716C13.9363 23.8166 14.3243 23.936 15.0397 23.9686C15.813 24.004 16.0443 24.0113 18.003 24.0113C19.9617 24.0113 20.193 24.004 20.9663 23.9686C21.6817 23.936 22.0697 23.8166 22.3283 23.716C22.6703 23.5826 22.915 23.4246 23.1717 23.168C23.415 22.9313 23.6023 22.6426 23.7197 22.3246C23.8203 22.066 23.9397 21.678 23.9723 20.9626C24.0077 20.1893 24.015 19.9573 24.015 17.9993C24.015 16.0413 24.0077 15.8093 23.9723 15.036C23.9397 14.3206 23.8203 13.9326 23.7197 13.674C23.5863 13.332 23.4283 13.0873 23.1717 12.8306C22.935 12.5873 22.6468 12.4001 22.3283 12.2826C22.0697 12.182 21.6817 12.0626 20.9663 12.03ZM17.0663 20.26C17.5894 20.4777 18.1719 20.5071 18.7143 20.3431C19.2567 20.1791 19.7253 19.8319 20.0401 19.3608C20.3549 18.8897 20.4964 18.3239 20.4404 17.76C20.3844 17.1962 20.1343 16.6693 19.733 16.2693C19.4772 16.0136 19.1678 15.8178 18.8272 15.6961C18.4866 15.5743 18.1233 15.5295 17.7633 15.565C17.4034 15.6005 17.0558 15.7154 16.7455 15.9014C16.4353 16.0873 16.1702 16.3398 15.9692 16.6405C15.7683 16.9413 15.6365 17.2828 15.5834 17.6406C15.5302 17.9984 15.5571 18.3635 15.662 18.7096C15.767 19.0558 15.9473 19.3744 16.1902 19.6424C16.433 19.9105 16.7322 20.1214 17.0663 20.26ZM15.3377 15.334C15.6877 14.9839 16.1032 14.7063 16.5605 14.5169C17.0179 14.3274 17.508 14.2299 18.003 14.2299C18.498 14.2299 18.9882 14.3274 19.4455 14.5169C19.9028 14.7063 20.3183 14.9839 20.6683 15.334C21.0184 15.684 21.296 16.0995 21.4854 16.5568C21.6749 17.0141 21.7724 17.5043 21.7724 17.9993C21.7724 18.4943 21.6749 18.9844 21.4854 19.4418C21.296 19.8991 21.0184 20.3146 20.6683 20.6646C19.9615 21.3715 19.0027 21.7686 18.003 21.7686C17.0033 21.7686 16.0446 21.3715 15.3377 20.6646C14.6308 19.9577 14.2337 18.999 14.2337 17.9993C14.2337 16.9996 14.6308 16.0408 15.3377 15.334ZM22.6083 14.7913C22.6951 14.7095 22.7645 14.6111 22.8125 14.5019C22.8606 14.3928 22.8862 14.2751 22.888 14.1559C22.8897 14.0367 22.8675 13.9183 22.8227 13.8078C22.7778 13.6973 22.7113 13.597 22.627 13.5126C22.5427 13.4283 22.4423 13.3618 22.3318 13.317C22.2213 13.2721 22.1029 13.2499 21.9837 13.2517C21.8645 13.2534 21.7468 13.2791 21.6377 13.3271C21.5286 13.3751 21.4302 13.4446 21.3483 13.5313C21.1892 13.7 21.1021 13.924 21.1055 14.1559C21.1089 14.3878 21.2025 14.6092 21.3664 14.7732C21.5304 14.9372 21.7518 15.0308 21.9837 15.0342C22.2156 15.0375 22.4397 14.9504 22.6083 14.7913Z" fill="white"/>
</g>
<defs>
<clipPath id="clip0_80_60">
<rect width="16" height="16" fill="white" transform="translate(10.0002 9.99994)"/>
</clipPath>
</defs>
</svg>
