<svg width="36" height="36" viewBox="0 0 36 36" fill="none" xmlns="http://www.w3.org/2000/svg">
<rect x="0.5" y="0.5" width="35.0015" height="35" rx="7.5" transform="matrix(4.37114e-08 1 1 -4.37114e-08 2.18557e-08 -2.18557e-08)" stroke="#E6EDF0"/>
<path d="M25.7158 16.5898C25.8301 16.499 26 16.584 26 16.7275V22.7188C26 23.4951 25.3701 24.125 24.5938 24.125H12.4062C11.6299 24.125 11 23.4951 11 22.7188V16.7305C11 16.584 11.167 16.502 11.2842 16.5928C11.9404 17.1025 12.8105 17.75 15.7988 19.9209C16.417 20.3721 17.46 21.3213 18.5 21.3154C19.5459 21.3242 20.6094 20.3545 21.2041 19.9209C24.1924 17.75 25.0596 17.0996 25.7158 16.5898ZM18.5 20.375C19.1797 20.3867 20.1582 19.5195 20.6504 19.1621C24.5381 16.3408 24.834 16.0947 25.7305 15.3916C25.9004 15.2598 26 15.0547 26 14.8379V14.2812C26 13.5049 25.3701 12.875 24.5938 12.875H12.4062C11.6299 12.875 11 13.5049 11 14.2812V14.8379C11 15.0547 11.0996 15.2568 11.2695 15.3916C12.166 16.0918 12.4619 16.3408 16.3496 19.1621C16.8418 19.5195 17.8203 20.3867 18.5 20.375Z" fill="white"/>
</svg>
