<svg width="290" height="14" viewBox="0 0 290 14" fill="none" xmlns="http://www.w3.org/2000/svg">
<rect y="14" width="14" height="2" transform="rotate(-90 0 14)" fill="white"/>
<rect x="24" y="14" width="14" height="2" transform="rotate(-90 24 14)" fill="white"/>
<rect x="48" y="14" width="14" height="2" transform="rotate(-90 48 14)" fill="white"/>
<rect x="72" y="14" width="14" height="2" transform="rotate(-90 72 14)" fill="white"/>
<rect x="96" y="14" width="14" height="2" transform="rotate(-90 96 14)" fill="white"/>
<rect x="120" y="14" width="14" height="2" transform="rotate(-90 120 14)" fill="white"/>
<rect x="144" y="14" width="14" height="2" transform="rotate(-90 144 14)" fill="white"/>
<rect x="168" y="14" width="14" height="2" transform="rotate(-90 168 14)" fill="white"/>
<rect x="192" y="14" width="14" height="2" transform="rotate(-90 192 14)" fill="white"/>
<rect x="216" y="14" width="14" height="2" transform="rotate(-90 216 14)" fill="white"/>
<rect x="240" y="14" width="14" height="2" transform="rotate(-90 240 14)" fill="white"/>
<rect x="264" y="14" width="14" height="2" transform="rotate(-90 264 14)" fill="white"/>
<rect x="288" y="14" width="14" height="2" transform="rotate(-90 288 14)" fill="white"/>
</svg>
