<svg width="308" height="56" viewBox="0 0 308 56" fill="none" xmlns="http://www.w3.org/2000/svg">
<rect x="9" y="14" width="14" height="2" transform="rotate(-90 9 14)" fill="white"/>
<rect x="33" y="14" width="14" height="2" transform="rotate(-90 33 14)" fill="white"/>
<rect x="57" y="14" width="14" height="2" transform="rotate(-90 57 14)" fill="white"/>
<rect x="81" y="14" width="14" height="2" transform="rotate(-90 81 14)" fill="white"/>
<rect x="105" y="14" width="14" height="2" transform="rotate(-90 105 14)" fill="white"/>
<rect x="129" y="14" width="14" height="2" transform="rotate(-90 129 14)" fill="white"/>
<rect x="153" y="14" width="14" height="2" transform="rotate(-90 153 14)" fill="white"/>
<rect x="177" y="14" width="14" height="2" transform="rotate(-90 177 14)" fill="white"/>
<rect x="201" y="14" width="14" height="2" transform="rotate(-90 201 14)" fill="white"/>
<rect x="225" y="14" width="14" height="2" transform="rotate(-90 225 14)" fill="white"/>
<rect x="249" y="14" width="14" height="2" transform="rotate(-90 249 14)" fill="white"/>
<rect x="273" y="14" width="14" height="2" transform="rotate(-90 273 14)" fill="white"/>
<rect x="297" y="14" width="14" height="2" transform="rotate(-90 297 14)" fill="white"/>
<path d="M0.93 44.465C0.93 42.745 1.21 41.405 1.77 40.445C2.33 39.475 3.31 38.99 4.71 38.99C6.1 38.99 7.075 39.475 7.635 40.445C8.195 41.405 8.475 42.745 8.475 44.465C8.475 46.215 8.195 47.575 7.635 48.545C7.075 49.515 6.1 50 4.71 50C3.31 50 2.33 49.515 1.77 48.545C1.21 47.575 0.93 46.215 0.93 44.465ZM7.125 44.465C7.125 43.595 7.065 42.86 6.945 42.26C6.835 41.65 6.6 41.16 6.24 40.79C5.89 40.42 5.38 40.235 4.71 40.235C4.03 40.235 3.51 40.42 3.15 40.79C2.8 41.16 2.565 41.65 2.445 42.26C2.335 42.86 2.28 43.595 2.28 44.465C2.28 45.365 2.335 46.12 2.445 46.73C2.565 47.34 2.8 47.83 3.15 48.2C3.51 48.57 4.03 48.755 4.71 48.755C5.38 48.755 5.89 48.57 6.24 48.2C6.6 47.83 6.835 47.34 6.945 46.73C7.065 46.12 7.125 45.365 7.125 44.465ZM9.98895 40.4V39.155H12.8089V50H11.4289V40.4H9.98895Z" fill="white"/>
<path d="M45.93 44.465C45.93 42.745 46.21 41.405 46.77 40.445C47.33 39.475 48.31 38.99 49.71 38.99C51.1 38.99 52.075 39.475 52.635 40.445C53.195 41.405 53.475 42.745 53.475 44.465C53.475 46.215 53.195 47.575 52.635 48.545C52.075 49.515 51.1 50 49.71 50C48.31 50 47.33 49.515 46.77 48.545C46.21 47.575 45.93 46.215 45.93 44.465ZM52.125 44.465C52.125 43.595 52.065 42.86 51.945 42.26C51.835 41.65 51.6 41.16 51.24 40.79C50.89 40.42 50.38 40.235 49.71 40.235C49.03 40.235 48.51 40.42 48.15 40.79C47.8 41.16 47.565 41.65 47.445 42.26C47.335 42.86 47.28 43.595 47.28 44.465C47.28 45.365 47.335 46.12 47.445 46.73C47.565 47.34 47.8 47.83 48.15 48.2C48.51 48.57 49.03 48.755 49.71 48.755C50.38 48.755 50.89 48.57 51.24 48.2C51.6 47.83 51.835 47.34 51.945 46.73C52.065 46.12 52.125 45.365 52.125 44.465ZM55.1839 48.905C56.4539 47.885 57.4489 47.05 58.1689 46.4C58.8889 45.74 59.4939 45.055 59.9839 44.345C60.4839 43.625 60.7339 42.92 60.7339 42.23C60.7339 41.58 60.5739 41.07 60.2539 40.7C59.9439 40.32 59.4389 40.13 58.7389 40.13C58.0589 40.13 57.5289 40.345 57.1489 40.775C56.7789 41.195 56.5789 41.76 56.5489 42.47H55.2289C55.2689 41.35 55.6089 40.485 56.2489 39.875C56.8889 39.265 57.7139 38.96 58.7239 38.96C59.7539 38.96 60.5689 39.245 61.1689 39.815C61.7789 40.385 62.0839 41.17 62.0839 42.17C62.0839 43 61.8339 43.81 61.3339 44.6C60.8439 45.38 60.2839 46.07 59.6539 46.67C59.0239 47.26 58.2189 47.95 57.2389 48.74H62.3989V49.88H55.1839V48.905Z" fill="white"/>
<path d="M94.93 44.465C94.93 42.745 95.21 41.405 95.77 40.445C96.33 39.475 97.31 38.99 98.71 38.99C100.1 38.99 101.075 39.475 101.635 40.445C102.195 41.405 102.475 42.745 102.475 44.465C102.475 46.215 102.195 47.575 101.635 48.545C101.075 49.515 100.1 50 98.71 50C97.31 50 96.33 49.515 95.77 48.545C95.21 47.575 94.93 46.215 94.93 44.465ZM101.125 44.465C101.125 43.595 101.065 42.86 100.945 42.26C100.835 41.65 100.6 41.16 100.24 40.79C99.89 40.42 99.38 40.235 98.71 40.235C98.03 40.235 97.51 40.42 97.15 40.79C96.8 41.16 96.565 41.65 96.445 42.26C96.335 42.86 96.28 43.595 96.28 44.465C96.28 45.365 96.335 46.12 96.445 46.73C96.565 47.34 96.8 47.83 97.15 48.2C97.51 48.57 98.03 48.755 98.71 48.755C99.38 48.755 99.89 48.57 100.24 48.2C100.6 47.83 100.835 47.34 100.945 46.73C101.065 46.12 101.125 45.365 101.125 44.465ZM104.319 41.885C104.389 40.965 104.744 40.245 105.384 39.725C106.024 39.205 106.854 38.945 107.874 38.945C108.554 38.945 109.139 39.07 109.629 39.32C110.129 39.56 110.504 39.89 110.754 40.31C111.014 40.73 111.144 41.205 111.144 41.735C111.144 42.355 110.964 42.89 110.604 43.34C110.254 43.79 109.794 44.08 109.224 44.21V44.285C109.874 44.445 110.389 44.76 110.769 45.23C111.149 45.7 111.339 46.315 111.339 47.075C111.339 47.645 111.209 48.16 110.949 48.62C110.689 49.07 110.299 49.425 109.779 49.685C109.259 49.945 108.634 50.075 107.904 50.075C106.844 50.075 105.974 49.8 105.294 49.25C104.614 48.69 104.234 47.9 104.154 46.88H105.474C105.544 47.48 105.789 47.97 106.209 48.35C106.629 48.73 107.189 48.92 107.889 48.92C108.589 48.92 109.119 48.74 109.479 48.38C109.849 48.01 110.034 47.535 110.034 46.955C110.034 46.205 109.784 45.665 109.284 45.335C108.784 45.005 108.029 44.84 107.019 44.84H106.674V43.7H107.034C107.954 43.69 108.649 43.54 109.119 43.25C109.589 42.95 109.824 42.49 109.824 41.87C109.824 41.34 109.649 40.915 109.299 40.595C108.959 40.275 108.469 40.115 107.829 40.115C107.209 40.115 106.709 40.275 106.329 40.595C105.949 40.915 105.724 41.345 105.654 41.885H104.319Z" fill="white"/>
<path d="M143.93 44.465C143.93 42.745 144.21 41.405 144.77 40.445C145.33 39.475 146.31 38.99 147.71 38.99C149.1 38.99 150.075 39.475 150.635 40.445C151.195 41.405 151.475 42.745 151.475 44.465C151.475 46.215 151.195 47.575 150.635 48.545C150.075 49.515 149.1 50 147.71 50C146.31 50 145.33 49.515 144.77 48.545C144.21 47.575 143.93 46.215 143.93 44.465ZM150.125 44.465C150.125 43.595 150.065 42.86 149.945 42.26C149.835 41.65 149.6 41.16 149.24 40.79C148.89 40.42 148.38 40.235 147.71 40.235C147.03 40.235 146.51 40.42 146.15 40.79C145.8 41.16 145.565 41.65 145.445 42.26C145.335 42.86 145.28 43.595 145.28 44.465C145.28 45.365 145.335 46.12 145.445 46.73C145.565 47.34 145.8 47.83 146.15 48.2C146.51 48.57 147.03 48.755 147.71 48.755C148.38 48.755 148.89 48.57 149.24 48.2C149.6 47.83 149.835 47.34 149.945 46.73C150.065 46.12 150.125 45.365 150.125 44.465ZM153.019 47.585V46.55L158.284 39.26H159.919V46.4H161.419V47.585H159.919V50H158.569V47.585H153.019ZM158.629 40.685L154.594 46.4H158.629V40.685Z" fill="white"/>
<path d="M192.93 44.465C192.93 42.745 193.21 41.405 193.77 40.445C194.33 39.475 195.31 38.99 196.71 38.99C198.1 38.99 199.075 39.475 199.635 40.445C200.195 41.405 200.475 42.745 200.475 44.465C200.475 46.215 200.195 47.575 199.635 48.545C199.075 49.515 198.1 50 196.71 50C195.31 50 194.33 49.515 193.77 48.545C193.21 47.575 192.93 46.215 192.93 44.465ZM199.125 44.465C199.125 43.595 199.065 42.86 198.945 42.26C198.835 41.65 198.6 41.16 198.24 40.79C197.89 40.42 197.38 40.235 196.71 40.235C196.03 40.235 195.51 40.42 195.15 40.79C194.8 41.16 194.565 41.65 194.445 42.26C194.335 42.86 194.28 43.595 194.28 44.465C194.28 45.365 194.335 46.12 194.445 46.73C194.565 47.34 194.8 47.83 195.15 48.2C195.51 48.57 196.03 48.755 196.71 48.755C197.38 48.755 197.89 48.57 198.24 48.2C198.6 47.83 198.835 47.34 198.945 46.73C199.065 46.12 199.125 45.365 199.125 44.465ZM209.264 40.34H203.999V43.76C204.229 43.44 204.569 43.18 205.019 42.98C205.469 42.77 205.954 42.665 206.474 42.665C207.304 42.665 207.979 42.84 208.499 43.19C209.019 43.53 209.389 43.975 209.609 44.525C209.839 45.065 209.954 45.64 209.954 46.25C209.954 46.97 209.819 47.615 209.549 48.185C209.279 48.755 208.864 49.205 208.304 49.535C207.754 49.865 207.069 50.03 206.249 50.03C205.199 50.03 204.349 49.76 203.699 49.22C203.049 48.68 202.654 47.96 202.514 47.06H203.849C203.979 47.63 204.254 48.075 204.674 48.395C205.094 48.715 205.624 48.875 206.264 48.875C207.054 48.875 207.649 48.64 208.049 48.17C208.449 47.69 208.649 47.06 208.649 46.28C208.649 45.5 208.449 44.9 208.049 44.48C207.649 44.05 207.059 43.835 206.279 43.835C205.749 43.835 205.284 43.965 204.884 44.225C204.494 44.475 204.209 44.82 204.029 45.26H202.739V39.14H209.264V40.34Z" fill="white"/>
<path d="M241.93 44.465C241.93 42.745 242.21 41.405 242.77 40.445C243.33 39.475 244.31 38.99 245.71 38.99C247.1 38.99 248.075 39.475 248.635 40.445C249.195 41.405 249.475 42.745 249.475 44.465C249.475 46.215 249.195 47.575 248.635 48.545C248.075 49.515 247.1 50 245.71 50C244.31 50 243.33 49.515 242.77 48.545C242.21 47.575 241.93 46.215 241.93 44.465ZM248.125 44.465C248.125 43.595 248.065 42.86 247.945 42.26C247.835 41.65 247.6 41.16 247.24 40.79C246.89 40.42 246.38 40.235 245.71 40.235C245.03 40.235 244.51 40.42 244.15 40.79C243.8 41.16 243.565 41.65 243.445 42.26C243.335 42.86 243.28 43.595 243.28 44.465C243.28 45.365 243.335 46.12 243.445 46.73C243.565 47.34 243.8 47.83 244.15 48.2C244.51 48.57 245.03 48.755 245.71 48.755C246.38 48.755 246.89 48.57 247.24 48.2C247.6 47.83 247.835 47.34 247.945 46.73C248.065 46.12 248.125 45.365 248.125 44.465ZM257.394 41.735C257.174 40.625 256.489 40.07 255.339 40.07C254.449 40.07 253.784 40.415 253.344 41.105C252.904 41.785 252.689 42.91 252.699 44.48C252.929 43.96 253.309 43.555 253.839 43.265C254.379 42.965 254.979 42.815 255.639 42.815C256.669 42.815 257.489 43.135 258.099 43.775C258.719 44.415 259.029 45.3 259.029 46.43C259.029 47.11 258.894 47.72 258.624 48.26C258.364 48.8 257.964 49.23 257.424 49.55C256.894 49.87 256.249 50.03 255.489 50.03C254.459 50.03 253.654 49.8 253.074 49.34C252.494 48.88 252.089 48.245 251.859 47.435C251.629 46.625 251.514 45.625 251.514 44.435C251.514 40.765 252.794 38.93 255.354 38.93C256.334 38.93 257.104 39.195 257.664 39.725C258.224 40.255 258.554 40.925 258.654 41.735H257.394ZM255.354 43.97C254.924 43.97 254.519 44.06 254.139 44.24C253.759 44.41 253.449 44.675 253.209 45.035C252.979 45.385 252.864 45.815 252.864 46.325C252.864 47.085 253.084 47.705 253.524 48.185C253.964 48.655 254.594 48.89 255.414 48.89C256.114 48.89 256.669 48.675 257.079 48.245C257.499 47.805 257.709 47.215 257.709 46.475C257.709 45.695 257.509 45.085 257.109 44.645C256.709 44.195 256.124 43.97 255.354 43.97Z" fill="white"/>
<path d="M290.93 44.465C290.93 42.745 291.21 41.405 291.77 40.445C292.33 39.475 293.31 38.99 294.71 38.99C296.1 38.99 297.075 39.475 297.635 40.445C298.195 41.405 298.475 42.745 298.475 44.465C298.475 46.215 298.195 47.575 297.635 48.545C297.075 49.515 296.1 50 294.71 50C293.31 50 292.33 49.515 291.77 48.545C291.21 47.575 290.93 46.215 290.93 44.465ZM297.125 44.465C297.125 43.595 297.065 42.86 296.945 42.26C296.835 41.65 296.6 41.16 296.24 40.79C295.89 40.42 295.38 40.235 294.71 40.235C294.03 40.235 293.51 40.42 293.15 40.79C292.8 41.16 292.565 41.65 292.445 42.26C292.335 42.86 292.28 43.595 292.28 44.465C292.28 45.365 292.335 46.12 292.445 46.73C292.565 47.34 292.8 47.83 293.15 48.2C293.51 48.57 294.03 48.755 294.71 48.755C295.38 48.755 295.89 48.57 296.24 48.2C296.6 47.83 296.835 47.34 296.945 46.73C297.065 46.12 297.125 45.365 297.125 44.465ZM307.024 40.22L302.854 50H301.474L305.704 40.355H299.914V39.185H307.024V40.22Z" fill="white"/>
</svg>
