<svg width="50" height="119" viewBox="0 0 50 119" fill="none" xmlns="http://www.w3.org/2000/svg">
<path d="M31.93 11.465C31.93 9.745 32.21 8.405 32.77 7.445C33.33 6.475 34.31 5.99 35.71 5.99C37.1 5.99 38.075 6.475 38.635 7.445C39.195 8.405 39.475 9.745 39.475 11.465C39.475 13.215 39.195 14.575 38.635 15.545C38.075 16.515 37.1 17 35.71 17C34.31 17 33.33 16.515 32.77 15.545C32.21 14.575 31.93 13.215 31.93 11.465ZM38.125 11.465C38.125 10.595 38.065 9.86 37.945 9.26C37.835 8.65 37.6 8.16 37.24 7.79C36.89 7.42 36.38 7.235 35.71 7.235C35.03 7.235 34.51 7.42 34.15 7.79C33.8 8.16 33.565 8.65 33.445 9.26C33.335 9.86 33.28 10.595 33.28 11.465C33.28 12.365 33.335 13.12 33.445 13.73C33.565 14.34 33.8 14.83 34.15 15.2C34.51 15.57 35.03 15.755 35.71 15.755C36.38 15.755 36.89 15.57 37.24 15.2C37.6 14.83 37.835 14.34 37.945 13.73C38.065 13.12 38.125 12.365 38.125 11.465ZM40.9889 7.4V6.155H43.8089V17H42.4289V7.4H40.9889Z" fill="white"/>
<path d="M31.93 59.465C31.93 57.745 32.21 56.405 32.77 55.445C33.33 54.475 34.31 53.99 35.71 53.99C37.1 53.99 38.075 54.475 38.635 55.445C39.195 56.405 39.475 57.745 39.475 59.465C39.475 61.215 39.195 62.575 38.635 63.545C38.075 64.515 37.1 65 35.71 65C34.31 65 33.33 64.515 32.77 63.545C32.21 62.575 31.93 61.215 31.93 59.465ZM38.125 59.465C38.125 58.595 38.065 57.86 37.945 57.26C37.835 56.65 37.6 56.16 37.24 55.79C36.89 55.42 36.38 55.235 35.71 55.235C35.03 55.235 34.51 55.42 34.15 55.79C33.8 56.16 33.565 56.65 33.445 57.26C33.335 57.86 33.28 58.595 33.28 59.465C33.28 60.365 33.335 61.12 33.445 61.73C33.565 62.34 33.8 62.83 34.15 63.2C34.51 63.57 35.03 63.755 35.71 63.755C36.38 63.755 36.89 63.57 37.24 63.2C37.6 62.83 37.835 62.34 37.945 61.73C38.065 61.12 38.125 60.365 38.125 59.465ZM41.1839 63.905C42.4539 62.885 43.4489 62.05 44.1689 61.4C44.8889 60.74 45.4939 60.055 45.9839 59.345C46.4839 58.625 46.7339 57.92 46.7339 57.23C46.7339 56.58 46.5739 56.07 46.2539 55.7C45.9439 55.32 45.4389 55.13 44.7389 55.13C44.0589 55.13 43.5289 55.345 43.1489 55.775C42.7789 56.195 42.5789 56.76 42.5489 57.47H41.2289C41.2689 56.35 41.6089 55.485 42.2489 54.875C42.8889 54.265 43.7139 53.96 44.7239 53.96C45.7539 53.96 46.5689 54.245 47.1689 54.815C47.7789 55.385 48.0839 56.17 48.0839 57.17C48.0839 58 47.8339 58.81 47.3339 59.6C46.8439 60.38 46.2839 61.07 45.6539 61.67C45.0239 62.26 44.2189 62.95 43.2389 63.74H48.3989V64.88H41.1839V63.905Z" fill="white"/>
<path d="M31.93 107.465C31.93 105.745 32.21 104.405 32.77 103.445C33.33 102.475 34.31 101.99 35.71 101.99C37.1 101.99 38.075 102.475 38.635 103.445C39.195 104.405 39.475 105.745 39.475 107.465C39.475 109.215 39.195 110.575 38.635 111.545C38.075 112.515 37.1 113 35.71 113C34.31 113 33.33 112.515 32.77 111.545C32.21 110.575 31.93 109.215 31.93 107.465ZM38.125 107.465C38.125 106.595 38.065 105.86 37.945 105.26C37.835 104.65 37.6 104.16 37.24 103.79C36.89 103.42 36.38 103.235 35.71 103.235C35.03 103.235 34.51 103.42 34.15 103.79C33.8 104.16 33.565 104.65 33.445 105.26C33.335 105.86 33.28 106.595 33.28 107.465C33.28 108.365 33.335 109.12 33.445 109.73C33.565 110.34 33.8 110.83 34.15 111.2C34.51 111.57 35.03 111.755 35.71 111.755C36.38 111.755 36.89 111.57 37.24 111.2C37.6 110.83 37.835 110.34 37.945 109.73C38.065 109.12 38.125 108.365 38.125 107.465ZM41.3189 104.885C41.3889 103.965 41.7439 103.245 42.3839 102.725C43.0239 102.205 43.8539 101.945 44.8739 101.945C45.5539 101.945 46.1389 102.07 46.6289 102.32C47.1289 102.56 47.5039 102.89 47.7539 103.31C48.0139 103.73 48.1439 104.205 48.1439 104.735C48.1439 105.355 47.9639 105.89 47.6039 106.34C47.2539 106.79 46.7939 107.08 46.2239 107.21V107.285C46.8739 107.445 47.3889 107.76 47.7689 108.23C48.1489 108.7 48.3389 109.315 48.3389 110.075C48.3389 110.645 48.2089 111.16 47.9489 111.62C47.6889 112.07 47.2989 112.425 46.7789 112.685C46.2589 112.945 45.6339 113.075 44.9039 113.075C43.8439 113.075 42.9739 112.8 42.2939 112.25C41.6139 111.69 41.2339 110.9 41.1539 109.88H42.4739C42.5439 110.48 42.7889 110.97 43.2089 111.35C43.6289 111.73 44.1889 111.92 44.8889 111.92C45.5889 111.92 46.1189 111.74 46.4789 111.38C46.8489 111.01 47.0339 110.535 47.0339 109.955C47.0339 109.205 46.7839 108.665 46.2839 108.335C45.7839 108.005 45.0289 107.84 44.0189 107.84H43.6739V106.7H44.0339C44.9539 106.69 45.6489 106.54 46.1189 106.25C46.5889 105.95 46.8239 105.49 46.8239 104.87C46.8239 104.34 46.6489 103.915 46.2989 103.595C45.9589 103.275 45.4689 103.115 44.8289 103.115C44.2089 103.115 43.7089 103.275 43.3289 103.595C42.9489 103.915 42.7239 104.345 42.6539 104.885H41.3189Z" fill="white"/>
<rect y="11" width="14" height="2" fill="white"/>
<rect y="35" width="14" height="2" fill="white"/>
<rect y="59" width="14" height="2" fill="white"/>
<rect y="83" width="14" height="2" fill="white"/>
<rect y="107" width="14" height="2" fill="white"/>
</svg>
