<svg width="36" height="36" viewBox="0 0 36 36" fill="none" xmlns="http://www.w3.org/2000/svg">
<rect x="0.5" y="0.5" width="35.0015" height="35" rx="7.5" transform="matrix(4.37114e-08 1 1 -4.37114e-08 2.18557e-08 -2.18557e-08)" stroke="#E6EDF0"/>
<path d="M23.7793 12.4788L11.9593 17.0368C11.1526 17.3608 11.1573 17.8108 11.8113 18.0115L14.8459 18.9581L21.8673 14.5281C22.1993 14.3261 22.5026 14.4348 22.2533 14.6561L16.5646 19.7901H16.5633L16.5646 19.7908L16.3553 22.9188C16.6619 22.9188 16.7973 22.7781 16.9693 22.6121L18.4433 21.1788L21.5093 23.4435C22.0746 23.7548 22.4806 23.5948 22.6213 22.9201L24.6339 13.4348C24.8399 12.6088 24.3186 12.2348 23.7793 12.4788Z" fill="white"/>
</svg>
